<svg preserveAspectRatio="none" width="100%" height="100%" overflow="visible" style="display: block;" viewBox="0 0 34.0001 50.9852" fill="none" xmlns="http://www.w3.org/2000/svg">
<g id="Logo">
<path id="Vector" d="M8.51019 50.9852C13.1987 50.9852 17.0048 47.1792 17.0048 42.4907V33.9961H8.51019C3.82169 33.9961 0.015625 37.8022 0.015625 42.4907C0.015625 47.1792 3.82169 50.9852 8.51019 50.9852Z" fill="var(--fill-0, #0ACF83)"/>
<path id="Vector_2" d="M0 25.4927C0 20.8042 3.80607 16.9982 8.49457 16.9982H16.9891V33.9962H8.49457C3.80607 33.9962 0 30.1901 0 25.5016V25.4927Z" fill="var(--fill-0, #A259FF)"/>
<path id="Vector_3" d="M0 8.49457C0 3.80606 3.80607 0 8.49457 0H16.9891V16.9981H8.49457C3.80607 16.9981 0 13.192 0 8.50348V8.49457Z" fill="var(--fill-0, #F24E1E)"/>
<path id="Vector_4" d="M16.9219 0H25.4164C30.1049 0 33.911 3.80606 33.911 8.49457C33.911 13.1831 30.1049 16.9891 25.4164 16.9891H16.9219V0Z" fill="var(--fill-0, #FF7262)"/>
<path id="Vector_5" d="M34.0001 25.4926C34.0001 30.1811 30.1941 33.9872 25.5056 33.9872C20.8171 33.9872 16.9219 30.1811 16.9219 25.4926C16.9219 20.8041 20.7279 16.998 25.4164 16.998C30.1049 16.998 33.911 20.8041 33.911 25.4926H34.0001Z" fill="var(--fill-0, #1ABCFE)"/>
</g>
</svg>
