<svg preserveAspectRatio="none" width="100%" height="100%" overflow="visible" style="display: block;" viewBox="0 0 63.3198 58.2331" fill="none" xmlns="http://www.w3.org/2000/svg">
<g id="Group 126">
<path id="Vector" d="M31.6588 58.2331L43.3175 22.4093H20.0002L31.6588 58.2331Z" fill="var(--fill-0, #E24329)"/>
<path id="Vector_2" d="M31.6626 58.2331L20.004 22.4093H3.66406L31.6626 58.2331Z" fill="var(--fill-0, #FC6D26)"/>
<path id="Vector_3" d="M3.66109 22.4093L0.117929 33.2967C-0.0394014 33.7806 -0.0393072 34.3018 0.118197 34.7856C0.275702 35.2695 0.582536 35.6912 0.994758 35.9903L31.6596 58.2331L3.66109 22.4093Z" fill="var(--fill-0, #FCA326)"/>
<path id="Vector_4" d="M3.66406 22.4091H20.004L12.9818 0.832555C12.6205 -0.277518 11.0475 -0.277518 10.6863 0.832555L3.66406 22.4091Z" fill="var(--fill-0, #E24329)"/>
<path id="Vector_5" d="M31.6601 58.2331L43.3188 22.4093H59.6587L31.6601 58.2331Z" fill="var(--fill-0, #FC6D26)"/>
<path id="Vector_6" d="M59.6587 22.4093L63.2019 33.2967C63.3592 33.7806 63.3591 34.3018 63.2016 34.7856C63.0441 35.2695 62.7372 35.6912 62.325 35.9903L31.6601 58.2331L59.6587 22.4093V22.4093Z" fill="var(--fill-0, #FCA326)"/>
<path id="Vector_7" d="M59.6602 22.4091H43.3203L50.3425 0.832555C50.7037 -0.277518 52.2768 -0.277518 52.638 0.832555L59.6602 22.4091V22.4091Z" fill="var(--fill-0, #E24329)"/>
</g>
</svg>
