<svg preserveAspectRatio="none" width="100%" height="100%" overflow="visible" style="display: block;" viewBox="0 0 24 24.15" fill="none" xmlns="http://www.w3.org/2000/svg">
<g id="notification">
<path id="Vector" d="M15.6 20.4C15.6 22.05 14.25 23.4 12.6 23.4C11.78 23.4 11.02 23.06 10.48 22.52C9.94002 21.98 9.60002 21.22 9.60002 20.4" stroke="var(--stroke-0, #A7B5BE)" stroke-width="1.5" stroke-miterlimit="10"/>
<path id="Vector_2" d="M12.6278 2.90999C8.91387 2.90999 5.89563 5.59999 5.89563 8.90999V11.8C5.89563 12.41 5.60391 13.34 5.25608 13.86L3.96576 15.77C3.16912 16.95 3.71891 18.26 5.17754 18.7C10.0134 20.14 15.2308 20.14 20.0668 18.7C21.4244 18.3 22.0191 16.87 21.2785 15.77L19.9882 13.86C19.6516 13.34 19.3599 12.41 19.3599 11.8V8.90999C19.3599 5.60999 16.3304 2.90999 12.6278 2.90999Z" stroke="var(--stroke-0, #A7B5BE)" stroke-width="1.5" stroke-miterlimit="10" stroke-linecap="round"/>
<path id="Vector_3" d="M14.4 3.00003C14.0984 2.9286 13.7871 2.87304 13.466 2.84129C12.5319 2.74606 11.6368 2.80161 10.8 3.00003C11.0822 2.41272 11.7827 2.00003 12.6 2.00003C13.4173 2.00003 14.1179 2.41272 14.4 3.00003Z" stroke="var(--stroke-0, #A7B5BE)" stroke-width="1.5" stroke-miterlimit="10" stroke-linecap="round" stroke-linejoin="round"/>
<g id="Vector_4" opacity="0">
</g>
</g>
</svg>
