<svg preserveAspectRatio="none" width="100%" height="100%" overflow="visible" style="display: block;" viewBox="0 0 125.125 29.9921" fill="none" xmlns="http://www.w3.org/2000/svg">
<g id="Frame 36">
<path id="Modern Day Moms Logo (Traced)" fill-rule="evenodd" clip-rule="evenodd" d="M50.1375 0.0449192C47.0422 0.625657 45.4547 1.41911 43.5228 3.35093C41.4384 5.43536 40.4216 7.64176 40.1607 10.6462C39.7491 15.3852 41.969 19.722 45.9812 22.0178C49.127 23.8179 53.4483 23.9789 56.862 22.4232C58.9892 21.4538 61.0305 19.4981 62.2009 17.3083C63.7584 14.3941 63.9311 10.2538 62.6284 7.05857C61.3002 3.80068 58.3393 1.22057 54.9062 0.329557C53.929 0.0759819 53.7349 0.0552444 52.1062 0.0304819C51.1437 0.0158694 50.2578 0.0223442 50.1375 0.0449192ZM103.279 0.120257C100.906 0.550844 98.851 1.89791 97.999 3.58123C97.4644 4.63762 97.3436 5.23568 97.3454 6.81567C97.3473 8.43757 97.4985 9.18657 98.0224 10.1695C98.8941 11.8049 100.904 12.9556 104.562 13.9132C107.448 14.6687 108.464 15.2164 108.75 16.1713C109.281 17.943 107.652 19.223 105.27 18.9059C103.533 18.6746 101.688 17.7382 99.7859 16.1217L99.5422 15.9147C99.4297 15.8191 99.2616 15.8298 99.1622 15.9389C99.0282 16.0858 97.0228 18.5958 96.4089 19.385C96.3085 19.514 96.7448 19.9376 97.7812 20.7175C100.148 22.4985 102.481 23.3598 105.306 23.4953C109.479 23.6953 112.615 21.9301 113.722 18.7594C113.953 18.0951 113.966 17.9813 113.964 16.5282C113.962 15.1016 113.946 14.9491 113.727 14.2969C113.399 13.3203 112.929 12.5713 112.252 11.945C111.074 10.8553 109.634 10.1872 106.757 9.39421C104.072 8.6544 103.266 8.30265 102.808 7.67116C102.153 6.76676 102.547 5.34051 103.6 4.80343C104.122 4.53673 104.953 4.44048 105.891 4.53778C107.415 4.69581 108.846 5.2244 110.209 6.13265C110.593 6.38797 110.95 6.62562 111.005 6.66071C111.067 6.70113 111.555 6.05477 112.339 4.89487C113.019 3.88862 113.575 3.02657 113.575 2.97915C113.575 2.93181 113.332 2.71008 113.034 2.48643C111.492 1.32758 109.487 0.493969 107.369 0.131719C106.372 -0.0388183 104.19 -0.0449434 103.279 0.120257ZM11.1125 11.8469V20.7725C11.1125 22.1494 12.2288 23.2657 13.6057 23.2657C14.984 23.2657 16.1025 22.1507 16.1069 20.7725L16.1213 16.2124L16.1223 15.92C16.1275 14.2712 18.3598 13.7659 19.0745 15.2518L21.3422 19.9662C21.7464 20.8065 22.6022 21.3352 23.5345 21.3207C24.4722 21.3061 25.3216 20.7643 25.73 19.9201L27.9975 15.2333C28.7159 13.7486 30.9474 14.2564 30.9527 15.9057L30.9536 16.2177L30.9681 20.7725C30.9725 22.1507 32.091 23.2657 33.4693 23.2657C34.8462 23.2657 35.9625 22.1494 35.9625 20.7725V11.8459V3.77302C35.9625 1.92827 34.4603 0.436359 32.6156 0.448994C30.573 0.462986 28.7225 1.65632 27.8671 3.51123L26.4339 6.6188C24.8748 9.99954 23.5729 12.7657 23.5407 12.7657C23.5085 12.7657 22.21 9.98974 20.655 6.59692L19.2267 3.4805C18.3743 1.62062 16.5161 0.428169 14.4701 0.428169C12.6158 0.428169 11.1125 1.93143 11.1125 3.7858V11.8469ZM67.6375 11.8459V20.7725C67.6375 22.1494 68.7538 23.2657 70.1307 23.2657C71.509 23.2657 72.6275 22.1507 72.6319 20.7725L72.6464 16.2012L72.6473 15.9048C72.6525 14.2555 74.8857 13.7506 75.6 15.2372L77.8681 19.9575C78.2734 20.8011 79.1266 21.3375 80.0625 21.3371C80.9988 21.3367 81.8524 20.8007 82.2594 19.9575L84.525 15.2641C85.2416 13.7795 87.4725 14.2861 87.4777 15.9345L87.4786 16.2287L87.493 20.7284C87.4974 22.131 88.6357 23.2657 90.0384 23.2657C91.4389 23.2657 92.5734 22.1289 92.5707 20.7285L92.5535 11.8688L92.5378 3.83682C92.5342 1.97737 91.0258 0.471919 89.1663 0.471919C87.1154 0.471919 85.252 1.66544 84.3942 3.52843L82.9538 6.65703C81.3877 10.0589 80.0808 12.8151 80.0496 12.782C80.0186 12.749 78.731 9.96567 77.1885 6.59692L75.7882 3.53896C74.9315 1.66802 73.0683 0.462979 71.0106 0.448994C69.1514 0.436407 67.6375 1.9401 67.6375 3.79936V11.8459ZM53.0943 4.58906C54.9785 4.96881 56.6334 6.32305 57.5796 8.25942C58.1179 9.36105 58.271 9.99157 58.3337 11.3657C58.438 13.6503 57.8006 15.4447 56.3243 17.023C54.4599 19.016 51.5889 19.5419 49.0925 18.3477C48.4775 18.0536 48.212 17.853 47.5084 17.1519C46.1553 15.8032 45.5082 14.4491 45.3344 12.6024C45.095 10.0581 45.8829 7.79812 47.5679 6.19643C49.1133 4.72731 51.0234 4.17177 53.0943 4.58906ZM47.7094 27.1495C47.168 28.3685 46.725 29.4109 46.725 29.4658C46.725 29.5234 46.8682 29.5657 47.0636 29.5657C47.2697 29.5657 47.4566 29.4446 47.5408 29.2565L48.4199 27.2937C48.9796 26.0441 49.4375 25.0006 49.4375 24.9749C49.4375 24.9492 49.2701 24.9293 49.0656 24.9306C48.8392 24.9321 48.6347 25.066 48.5428 25.2729L47.7094 27.1495ZM50.0986 25.3876C49.9862 25.6402 49.5356 26.6477 49.0971 27.6265C48.6587 28.6053 48.3 29.4443 48.3 29.491C48.3 29.5376 48.4613 29.5637 48.6587 29.5488C48.8796 29.5322 49.0737 29.396 49.1643 29.1938L50.0149 27.2956C50.5635 26.0711 51.0125 25.0375 51.0125 24.9987C51.0125 24.9599 50.8528 24.9282 50.6577 24.9282C50.3139 24.9282 50.2965 24.9425 50.0986 25.3876ZM84.4375 27.3782V29.3032C84.4375 29.4965 84.5942 29.6532 84.7875 29.6532C84.9808 29.6532 85.1375 29.4965 85.1375 29.3032V27.3782V25.4532C85.1375 25.2599 84.9808 25.1032 84.7875 25.1032C84.5942 25.1032 84.4375 25.2599 84.4375 25.4532V27.3782ZM108.27 25.3457C108.045 25.5279 107.887 25.8176 107.887 26.0498C107.887 26.1467 107.812 26.24 107.712 26.2661C107.585 26.2994 107.537 26.3854 107.537 26.5825C107.537 26.7948 107.575 26.8532 107.712 26.8532C107.878 26.8532 107.887 26.9115 107.887 27.9032V28.5594C107.887 28.7769 108.064 28.9532 108.281 28.9532C108.499 28.9532 108.675 28.7769 108.675 28.5594V27.9032V27.1594C108.675 26.9903 108.812 26.8532 108.981 26.8532C109.273 26.8532 109.287 26.8386 109.287 26.5469C109.287 26.2553 109.273 26.2407 108.981 26.2407C108.765 26.2407 108.675 26.2015 108.675 26.1067C108.675 25.9223 108.927 25.8419 109.122 25.9638C109.261 26.0505 109.304 26.0255 109.428 25.786C109.567 25.5172 109.565 25.5018 109.376 25.3491C109.124 25.1448 108.52 25.143 108.27 25.3457ZM109.742 25.2957C109.557 25.4811 109.618 25.8738 109.856 26.03C110.059 26.1627 110.091 26.1627 110.294 26.03C110.44 25.9341 110.512 25.8063 110.512 25.6437C110.512 25.3397 110.369 25.1907 110.075 25.1907C109.95 25.1907 109.8 25.2379 109.742 25.2957ZM9.7125 25.8563C9.7125 26.3746 9.69666 26.4273 9.55937 26.3658C9.4752 26.328 9.22906 26.2828 9.0125 26.2652C8.2642 26.2045 7.76247 26.7464 7.76247 27.6155C7.76247 28.6678 8.88344 29.4138 9.5536 28.8073C9.70104 28.674 9.7125 28.674 9.7125 28.8084C9.7125 28.9217 9.79816 28.9532 10.1062 28.9532C10.3237 28.9532 10.5 28.7769 10.5 28.5594V27.1157V25.6719C10.5 25.4545 10.3237 25.2782 10.1062 25.2782C9.88879 25.2782 9.7125 25.4545 9.7125 25.6719V25.8563ZM22.225 25.8927V26.244C22.225 26.3571 22.0994 26.4249 22.0049 26.3629C21.6444 26.1268 20.941 26.2364 20.6376 26.576C20.3441 26.9045 20.185 27.4491 20.2624 27.8612C20.354 28.3497 20.7631 28.8401 21.1844 28.9663C21.5119 29.0645 21.5833 29.0567 21.887 28.8904C22.1498 28.7464 22.225 28.7328 22.225 28.8292C22.225 28.9178 22.3373 28.9532 22.6187 28.9532C22.8362 28.9532 23.0125 28.7769 23.0125 28.5594V27.1157V25.6719C23.0125 25.4545 22.8362 25.2782 22.6187 25.2782C22.4013 25.2782 22.225 25.4545 22.225 25.6719V25.8927ZM62.65 27.1157V28.5594C62.65 28.7769 62.8263 28.9532 63.0437 28.9532C63.2612 28.9532 63.4375 28.7769 63.4375 28.5594V28.0917C63.4375 27.3683 63.4631 27.2071 63.5975 27.0855C63.7855 26.9154 64.0594 26.8975 64.2075 27.0457C64.2756 27.1138 64.3125 27.4676 64.3125 28.0519V28.5594C64.3125 28.7769 64.4888 28.9532 64.7062 28.9532C64.9237 28.9532 65.1 28.7769 65.1 28.5594V27.9385C65.1 26.834 65.0017 26.5186 64.6002 26.3356C64.3387 26.2164 63.7283 26.2116 63.6562 26.3282C63.5197 26.5492 63.4375 26.3685 63.4375 25.8469V25.6719C63.4375 25.4545 63.2612 25.2782 63.0437 25.2782C62.8263 25.2782 62.65 25.4545 62.65 25.6719V27.1157ZM70.6125 27.1157V28.5157C70.6125 28.7573 70.8084 28.9532 71.05 28.9532C71.2916 28.9532 71.4875 28.7573 71.4875 28.5157V28.0844C71.4875 27.1387 71.5713 26.9407 71.9719 26.9407C72.2816 26.9407 72.3625 27.1843 72.3625 28.1162V28.5523C72.3625 28.7737 72.542 28.9532 72.7634 28.9532C72.9831 28.9532 73.1595 28.7721 73.1537 28.5525L73.1353 27.8521L73.1164 27.1338C73.1099 26.8894 73.0028 26.6586 72.8205 26.4958C72.5147 26.2228 71.9963 26.1496 71.6567 26.3312C71.4975 26.4166 71.4875 26.3882 71.4875 25.85V25.7157C71.4875 25.4741 71.2916 25.2782 71.05 25.2782C70.8084 25.2782 70.6125 25.4741 70.6125 25.7157V27.1157ZM81.8125 25.8927V26.244C81.8125 26.3571 81.6869 26.4249 81.5923 26.3629C81.2319 26.1268 80.5285 26.2364 80.2251 26.576C79.9316 26.9045 79.7725 27.4491 79.8499 27.8612C79.9415 28.3497 80.3506 28.8401 80.772 28.9663C81.0994 29.0645 81.1708 29.0567 81.4745 28.8904C81.7373 28.7464 81.8125 28.7328 81.8125 28.8292C81.8125 28.9178 81.9248 28.9532 82.2062 28.9532C82.4237 28.9532 82.6 28.7769 82.6 28.5594V27.1157V25.6719C82.6 25.4545 82.4237 25.2782 82.2062 25.2782C81.9888 25.2782 81.8125 25.4545 81.8125 25.6719V25.8927ZM94.85 27.1157V28.5594C94.85 28.7769 95.0263 28.9532 95.2437 28.9532C95.4612 28.9532 95.6375 28.7769 95.6375 28.5594V27.1157V25.6719C95.6375 25.4545 95.4612 25.2782 95.2437 25.2782C95.0263 25.2782 94.85 25.4545 94.85 25.6719V27.1157ZM111.125 27.1157V28.5594C111.125 28.7769 111.301 28.9532 111.519 28.9532C111.736 28.9532 111.912 28.7769 111.912 28.5594V27.1157V25.6719C111.912 25.4545 111.736 25.2782 111.519 25.2782C111.301 25.2782 111.125 25.4545 111.125 25.6719V27.1157ZM124.337 25.85C124.337 26.3882 124.328 26.4166 124.168 26.3312C123.92 26.1985 123.317 26.2208 123.021 26.3738C122.455 26.6665 122.234 27.6932 122.598 28.3403C122.787 28.6766 123.312 29.0411 123.606 29.0402C123.695 29.0398 123.886 28.9784 124.029 28.9037C124.198 28.8159 124.301 28.8006 124.321 28.8604C124.338 28.9114 124.526 28.9532 124.739 28.9532C124.952 28.9532 125.125 28.7801 125.125 28.5667V27.1157V25.6719C125.125 25.4545 124.949 25.2782 124.731 25.2782C124.514 25.2782 124.337 25.4545 124.337 25.6719V25.85ZM60.6375 25.8469C60.6375 26.1386 60.6035 26.2407 60.5062 26.2407C60.4145 26.2407 60.375 26.3331 60.375 26.5469C60.375 26.7608 60.4145 26.8532 60.5062 26.8532C60.612 26.8532 60.6375 26.9898 60.6375 27.5576C60.6375 28.3723 60.7696 28.7063 61.1746 28.9157C61.475 29.071 61.8832 29.0312 62.1632 28.8195C62.3268 28.6957 62.3274 28.6801 62.1804 28.3719C62.0659 28.1318 62.0032 28.0775 61.9278 28.1529C61.7837 28.297 61.5401 28.2764 61.4781 28.1148C61.4489 28.0386 61.425 27.7236 61.425 27.4148V27.2087C61.425 27.0123 61.5842 26.8532 61.7805 26.8532C62.1289 26.8532 62.1355 26.8475 62.1086 26.5688C62.0836 26.3092 62.0527 26.2821 61.7531 26.2573C61.4273 26.2303 61.425 26.2274 61.425 25.8417C61.425 25.6271 61.2511 25.4532 61.0365 25.4532H61.0312C60.8138 25.4532 60.6375 25.6295 60.6375 25.8469ZM112.612 25.8469C112.612 26.1386 112.578 26.2407 112.481 26.2407C112.39 26.2407 112.35 26.3331 112.35 26.5469C112.35 26.7608 112.39 26.8532 112.481 26.8532C112.587 26.8532 112.613 26.9919 112.613 27.5751C112.613 28.4667 112.78 28.8039 113.296 28.9585C113.584 29.0447 113.688 29.037 113.956 28.9095C114.317 28.7383 114.329 28.6992 114.136 28.3262C114.034 28.129 113.972 28.0839 113.9 28.1556C113.758 28.2974 113.515 28.2751 113.453 28.1148C113.424 28.0386 113.4 27.7236 113.4 27.4148V27.2087C113.4 27.0123 113.559 26.8532 113.756 26.8532C114.104 26.8532 114.11 26.8475 114.084 26.5688C114.059 26.3092 114.028 26.2821 113.728 26.2573C113.402 26.2303 113.4 26.2274 113.4 25.8417C113.4 25.6271 113.226 25.4532 113.011 25.4532H113.006C112.789 25.4532 112.612 25.6295 112.612 25.8469ZM98.2625 26.4109V26.4271C98.2625 26.6613 98.0806 26.8552 97.8469 26.8702C97.4353 26.8967 97.431 26.9001 97.4041 27.2251C97.3895 27.4017 97.5289 27.5532 97.7062 27.5532H97.8197H97.825C98.0666 27.5532 98.2625 27.7491 98.2625 27.9907V28.0344C98.2625 28.2519 98.4388 28.4282 98.6562 28.4282C98.8737 28.4282 99.05 28.2519 99.05 28.0344V27.9907V27.9469C99.05 27.7295 99.2263 27.5532 99.4437 27.5532H99.4875C99.6808 27.5532 99.8375 27.3965 99.8375 27.2032C99.8375 27.0099 99.6808 26.8532 99.4875 26.8532H99.4437C99.2263 26.8532 99.05 26.6769 99.05 26.4594V26.4157V26.3719C99.05 26.1545 98.8737 25.9782 98.6562 25.9782C98.4388 25.9782 98.2625 26.1545 98.2625 26.3719V26.4109ZM0.0583618 26.299C0.0262493 26.3311 0 26.9414 0 27.6553V28.5157C0 28.7573 0.195875 28.9532 0.4375 28.9532C0.679125 28.9532 0.875 28.7573 0.875 28.5157V28.0519C0.875 27.0753 0.928986 26.9407 1.32064 26.9407C1.62969 26.9407 1.6625 27.0506 1.6625 28.0854V28.5157C1.6625 28.7573 1.85838 28.9532 2.1 28.9532C2.34162 28.9532 2.5375 28.7573 2.5375 28.5157V28.0519C2.5375 27.0697 2.59053 26.9407 2.99469 26.9407C3.32771 26.9407 3.4125 27.1903 3.4125 28.1714V28.5594C3.4125 28.7769 3.58879 28.9532 3.80625 28.9532C4.02371 28.9532 4.2 28.7769 4.2 28.5594V27.9863C4.2 26.9522 4.10961 26.6336 3.74351 26.3773C3.43919 26.164 2.77042 26.1992 2.48657 26.4434L2.46828 26.4592C2.3457 26.5646 2.16254 26.5578 2.0482 26.4434C1.82962 26.2249 1.34689 26.1693 1.04956 26.3284C0.940012 26.3871 0.867651 26.3871 0.831426 26.3284C0.771139 26.2309 0.150062 26.2073 0.0583618 26.299ZM5.27109 26.4152C4.86351 26.6637 4.6382 27.0779 4.63785 27.5794C4.63724 28.2962 5.0071 28.7782 5.69975 28.9633C6.05089 29.0571 6.16044 29.0509 6.51061 28.9172C7.27685 28.6245 7.60979 27.8544 7.30975 27.0689C7.09844 26.5156 6.67625 26.2406 6.03908 26.241C5.71174 26.2412 5.46437 26.2974 5.27109 26.4152ZM11.5394 26.4493C11.1984 26.6859 10.9375 27.2043 10.9375 27.6452C10.9375 28.5466 11.8338 29.2045 12.7226 28.9556C12.9391 28.895 13.1848 28.7697 13.2684 28.6772C13.414 28.5164 13.4108 28.4991 13.1941 28.2825C12.9788 28.0672 12.9574 28.063 12.7643 28.1983C12.478 28.3989 12.2118 28.3755 11.9268 28.1247C11.8411 28.0494 11.8942 27.9081 12.0083 27.9078L12.6656 27.906L13.3409 27.9041C13.5118 27.9036 13.65 27.765 13.65 27.5941C13.65 27.1928 13.4687 26.7761 13.1772 26.5071C12.9937 26.3378 12.8292 26.2857 12.4003 26.2609C11.9318 26.2338 11.8122 26.2599 11.5394 26.4493ZM14.0875 27.5969V28.5594C14.0875 28.7769 14.2638 28.9532 14.4812 28.9532C14.6987 28.9532 14.875 28.7769 14.875 28.5594V28.1852C14.875 27.316 14.9797 27.0767 15.4001 26.9844C15.6372 26.9324 15.6625 26.8937 15.6625 26.5838C15.6625 26.285 15.6367 26.2407 15.4633 26.2407C15.3536 26.2407 15.1764 26.302 15.0695 26.3769C14.8935 26.5002 14.875 26.5002 14.875 26.3769C14.875 26.2738 14.7793 26.2407 14.4812 26.2407C14.2638 26.2407 14.0875 26.417 14.0875 26.6344V27.5969ZM16.0709 26.299C16.0387 26.3311 16.0125 26.9414 16.0125 27.6553V28.5157C16.0125 28.7573 16.2084 28.9532 16.45 28.9532C16.6916 28.9532 16.8875 28.7573 16.8875 28.5157V28.048C16.8875 27.2822 16.9122 27.1205 17.0475 26.998C17.2668 26.7995 17.4644 26.8164 17.6263 27.0477C17.7271 27.1915 17.7625 27.465 17.7625 28.0977V28.5594C17.7625 28.7769 17.9388 28.9532 18.1562 28.9532C18.3737 28.9532 18.55 28.7769 18.55 28.5594V27.9863C18.55 26.9522 18.4596 26.6336 18.0935 26.3773C17.8734 26.223 17.309 26.1963 17.0621 26.3284C16.9525 26.3871 16.8802 26.3871 16.8439 26.3284C16.7836 26.2309 16.1626 26.2073 16.0709 26.299ZM23.8624 26.4233L23.8119 26.45C23.6632 26.5284 23.6177 26.72 23.7152 26.8569C23.8165 26.9992 23.9116 27.1157 23.9265 27.1157C23.9414 27.1157 24.1019 27.0537 24.283 26.978C24.6484 26.8254 25.025 26.8738 25.025 27.0736C25.025 27.1663 24.926 27.2032 24.6768 27.2032C24.1539 27.2032 23.66 27.4324 23.5355 27.733C23.2094 28.5203 24.0787 29.3083 24.8394 28.9149C24.9925 28.8358 25.1125 28.8131 25.1125 28.8634C25.1125 28.9128 25.2929 28.9532 25.5134 28.9532C25.7331 28.9532 25.9095 28.7721 25.9037 28.5525L25.8853 27.8521L25.8664 27.1338C25.8599 26.8894 25.7528 26.6586 25.5705 26.4958C25.3181 26.2705 25.221 26.2411 24.7392 26.2445C24.3688 26.2472 24.0874 26.3046 23.8624 26.4233ZM26.2904 26.7876C26.4046 27.0884 26.6378 27.6987 26.8087 28.144C27.1626 29.0661 27.1497 29.2562 26.7382 29.179C26.5011 29.1346 26.4424 29.1626 26.3128 29.3819C26.1178 29.7121 26.1181 29.7132 26.4206 29.8697C26.9206 30.1282 27.5208 29.9627 27.7273 29.5092C27.8774 29.18 28.9625 26.3438 28.9625 26.2808C28.9625 26.2535 28.7775 26.2431 28.5514 26.2577C28.3003 26.274 28.0809 26.4332 27.9874 26.6668L27.8711 26.9575C27.723 27.3277 27.5789 27.6535 27.5508 27.6815C27.5228 27.7095 27.3732 27.3968 27.2184 26.9866L27.0876 26.6402C26.9968 26.3998 26.7667 26.2407 26.5098 26.2407C26.3036 26.2407 26.1612 26.447 26.2344 26.6398L26.2904 26.7876ZM30.5375 27.5969V28.5594C30.5375 28.7769 30.7138 28.9532 30.9312 28.9532C31.1487 28.9532 31.325 28.7769 31.325 28.5594V28.1414C31.325 27.237 31.4442 26.9407 31.8082 26.9407C32.1192 26.9407 32.2 27.1831 32.2 28.1162V28.5594C32.2 28.7769 32.3763 28.9532 32.5937 28.9532C32.8112 28.9532 32.9875 28.7769 32.9875 28.5594V28.0917C32.9875 27.3683 33.0131 27.2071 33.1475 27.0855C33.3355 26.9154 33.6094 26.8975 33.7575 27.0457C33.8256 27.1138 33.8625 27.4676 33.8625 28.0519V28.5594C33.8625 28.7769 34.0388 28.9532 34.2562 28.9532C34.4737 28.9532 34.65 28.7769 34.65 28.5594V27.9412C34.65 26.8947 34.5915 26.6578 34.2679 26.3957C34.0072 26.1846 33.3684 26.1959 33.0039 26.418L32.9586 26.4457C32.8116 26.5353 32.6243 26.5242 32.489 26.4177C32.2348 26.2178 31.6867 26.18 31.5066 26.3501C31.4138 26.4376 31.3826 26.4376 31.3505 26.3501C31.3267 26.2851 31.1534 26.2407 30.924 26.2407C30.7105 26.2407 30.5375 26.4137 30.5375 26.6272V27.5969ZM35.9139 26.3246C35.5774 26.4609 35.1901 26.9989 35.1274 27.4172C35.0794 27.7376 35.1075 27.8935 35.2746 28.2303C35.9266 29.5449 37.8921 29.1129 37.9142 27.6502C37.9264 26.8358 37.3398 26.2363 36.5402 26.2462C36.2946 26.2493 36.0128 26.2845 35.9139 26.3246ZM38.4125 27.5969V28.5594C38.4125 28.7769 38.5888 28.9532 38.8062 28.9532C39.0237 28.9532 39.2 28.7769 39.2 28.5594V28.0917C39.2 27.3538 39.2241 27.2085 39.3678 27.0785C39.4601 26.9949 39.6272 26.9396 39.7391 26.9556C39.989 26.991 40.0503 27.2314 40.0647 28.2313L40.0694 28.5595C40.0725 28.7778 40.2504 28.9532 40.4687 28.9532C40.6862 28.9532 40.8625 28.7769 40.8625 28.5594V28.0844C40.8625 27.1387 40.9463 26.9407 41.3469 26.9407C41.6566 26.9407 41.7375 27.1843 41.7375 28.1162V28.5594C41.7375 28.7769 41.9138 28.9532 42.1312 28.9532C42.3487 28.9532 42.525 28.7769 42.525 28.5594V27.9879C42.525 26.8539 42.4148 26.4999 42.0093 26.332C41.6633 26.1887 40.9987 26.257 40.7757 26.4588C40.6167 26.6027 40.597 26.601 40.3737 26.4254C40.1205 26.2262 39.6483 26.182 39.3692 26.3312C39.2526 26.3937 39.2 26.3937 39.2 26.3312C39.2 26.2815 39.0228 26.2407 38.8062 26.2407C38.5888 26.2407 38.4125 26.417 38.4125 26.6344V27.5969ZM43.4971 26.3628C43.2523 26.4985 43.0575 26.817 43.0531 27.0889C43.0485 27.3734 43.3865 27.7002 43.8812 27.8896C44.4393 28.1034 44.5205 28.3407 44.0356 28.3407C43.8488 28.3407 43.6195 28.2828 43.5261 28.2122C43.2918 28.035 43.2621 28.0428 43.0525 28.3372C42.9554 28.4736 43.0021 28.6645 43.1513 28.7406L43.2037 28.7673C44.1656 29.258 45.15 28.9355 45.15 28.1296C45.15 27.7196 44.955 27.5137 44.3618 27.2974C44.0509 27.1841 43.842 27.0595 43.8626 26.9997C43.9014 26.8869 44.2796 26.8745 44.6304 26.9748C44.8179 27.0284 44.8715 27.0016 44.9586 26.8107C45.0951 26.5109 45.101 26.5276 44.8044 26.3742C44.4893 26.2113 43.7817 26.2051 43.4971 26.3628ZM52.7334 26.299C52.7012 26.3311 52.675 26.9414 52.675 27.6553V28.5157C52.675 28.7573 52.8709 28.9532 53.1125 28.9532C53.3541 28.9532 53.55 28.7573 53.55 28.5157V28.0519C53.55 27.0753 53.604 26.9407 53.9956 26.9407C54.3047 26.9407 54.3375 27.0506 54.3375 28.0854V28.5696C54.3375 28.7814 54.5092 28.9532 54.7211 28.9532C54.9354 28.9532 55.1114 28.7841 55.12 28.57L55.1393 28.0884C55.1778 27.1299 55.2642 26.9407 55.6629 26.9407C56.0035 26.9407 56.0875 27.184 56.0875 28.1714V28.5594C56.0875 28.7769 56.2638 28.9532 56.4812 28.9532C56.6987 28.9532 56.875 28.7769 56.875 28.5594V27.9863C56.875 26.9522 56.7846 26.6336 56.4185 26.3773C56.1142 26.164 55.4454 26.1992 55.1616 26.4434L55.1433 26.4592C55.0207 26.5646 54.8375 26.5578 54.7232 26.4434C54.5046 26.2249 54.0219 26.1693 53.7246 26.3284C53.615 26.3871 53.5427 26.3871 53.5064 26.3284C53.4461 26.2309 52.8251 26.2073 52.7334 26.299ZM57.9461 26.4152C57.5385 26.6637 57.3132 27.0779 57.3129 27.5794C57.3122 28.2962 57.6821 28.7782 58.3748 28.9633C58.7259 29.0571 58.8354 29.0509 59.1856 28.9172C59.9518 28.6245 60.2848 27.8544 59.9847 27.0689C59.7734 26.5156 59.3512 26.2406 58.7141 26.241C58.3867 26.2412 58.1394 26.2974 57.9461 26.4152ZM66.1378 26.4549C65.8043 26.6816 65.5375 27.201 65.5375 27.6239C65.5375 27.7571 65.6261 28.0418 65.7344 28.2565C66.0991 28.9798 67.0113 29.2296 67.7322 28.8037C68.0429 28.6202 68.0509 28.5183 67.7751 28.259C67.5754 28.0715 67.5504 28.0679 67.3618 28.2001C67.2514 28.2774 67.0801 28.3407 66.9812 28.3407C66.779 28.3407 66.4125 28.1119 66.4125 27.9857C66.4125 27.9392 66.8139 27.9032 67.3312 27.9032H67.8965C68.0917 27.9032 68.25 27.7449 68.25 27.5497C68.25 27.0959 67.9886 26.5889 67.6542 26.3938C67.2533 26.1599 66.529 26.1891 66.1378 26.4549ZM68.6875 27.5969V28.5594C68.6875 28.7769 68.8638 28.9532 69.0812 28.9532C69.2988 28.9532 69.4753 28.777 69.4757 28.5594L69.4763 28.2313C69.4778 27.3832 69.5898 27.1083 69.9793 26.9966C70.2355 26.9231 70.2625 26.8833 70.2625 26.578C70.2625 26.2853 70.2362 26.2407 70.0633 26.2407C69.9536 26.2407 69.7764 26.302 69.6695 26.3769C69.4935 26.5002 69.475 26.5002 69.475 26.3769C69.475 26.2738 69.3793 26.2407 69.0812 26.2407C68.8638 26.2407 68.6875 26.417 68.6875 26.6344V27.5969ZM74.2254 26.4126C73.8134 26.6638 73.5583 27.2178 73.6094 27.7501C73.632 27.9859 73.7272 28.2841 73.821 28.4128C74.0244 28.6922 74.672 29.0407 74.9875 29.0407C75.3397 29.0407 75.9723 28.6771 76.1899 28.3496C76.5793 27.7637 76.3814 26.8514 75.7751 26.4376C75.3944 26.1777 74.6309 26.1653 74.2254 26.4126ZM77.3711 26.4152C76.9635 26.6637 76.7382 27.0779 76.7379 27.5794C76.7372 28.3261 77.2097 28.8952 77.9181 29.0014C78.7133 29.1207 79.5375 28.4103 79.5375 27.606C79.5375 27.2144 79.2115 26.6197 78.8866 26.419C78.4984 26.1791 77.7613 26.1772 77.3711 26.4152ZM87.0625 27.5969V28.5594C87.0625 28.7769 87.2388 28.9532 87.4562 28.9532C87.6738 28.9532 87.8503 28.777 87.8507 28.5594L87.8513 28.2313C87.8528 27.3832 87.9648 27.1083 88.3543 26.9966C88.6105 26.9231 88.6375 26.8833 88.6375 26.578C88.6375 26.2853 88.6112 26.2407 88.4383 26.2407C88.3286 26.2407 88.1514 26.302 88.0445 26.3769C87.8685 26.5002 87.85 26.5002 87.85 26.3769C87.85 26.2738 87.7543 26.2407 87.4562 26.2407C87.2388 26.2407 87.0625 26.417 87.0625 26.6344V27.5969ZM89.5336 26.4152C89.1242 26.6649 88.9007 27.0775 88.9004 27.585C88.8996 28.6261 89.8228 29.2802 90.7781 28.9153C91.3272 28.7056 91.4014 28.5851 91.1565 28.3012C90.9597 28.0731 90.9512 28.0716 90.6678 28.2133C90.3463 28.3741 90.0436 28.3341 89.8089 28.0999C89.663 27.9543 89.7028 27.9457 90.6419 27.9221L91.1678 27.9089C91.4138 27.9027 91.6002 27.6848 91.5682 27.4408C91.4967 26.8962 91.3492 26.641 90.9734 26.4118C90.5975 26.1827 89.9124 26.1842 89.5336 26.4152ZM92.3784 26.3671C91.9532 26.5889 91.9524 26.5904 92.1112 26.8592C92.2614 27.1134 92.4328 27.1875 92.5251 27.0381C92.6094 26.9017 93.1913 26.8349 93.3254 26.9462C93.5365 27.1214 93.4652 27.2032 93.1018 27.2032C92.6693 27.2032 92.073 27.4342 91.96 27.6455C91.9132 27.7327 91.875 27.9476 91.875 28.1229C91.875 28.7599 92.6784 29.218 93.2644 28.9149C93.4175 28.8358 93.5375 28.8131 93.5375 28.8634C93.5375 28.9128 93.7147 28.9532 93.9312 28.9532C94.1487 28.9532 94.3249 28.7769 94.3248 28.5594L94.3245 28.1001C94.3237 26.5959 94.0997 26.2402 93.1538 26.2412C92.8595 26.2416 92.5106 26.2982 92.3784 26.3671ZM101.587 27.2118C101.587 28.3416 101.704 28.6889 102.154 28.9027C102.513 29.073 102.7 29.0755 103.009 28.9141C103.142 28.845 103.25 28.8256 103.25 28.8708C103.25 28.9162 103.448 28.9532 103.69 28.9532C103.931 28.9532 104.126 28.755 104.122 28.5135L104.105 27.6188L104.088 26.6781C104.084 26.4595 103.906 26.2844 103.687 26.2844C103.468 26.2844 103.289 26.4588 103.282 26.678L103.268 27.1545C103.255 27.6331 103.201 28.0761 103.148 28.1389C103.096 28.2017 102.939 28.2532 102.8 28.2532C102.459 28.2532 102.375 28.0098 102.375 27.0225V26.6344C102.375 26.417 102.199 26.2407 101.981 26.2407C101.764 26.2407 101.587 26.417 101.587 26.6344V27.2118ZM104.737 27.5969V28.5594C104.737 28.7769 104.914 28.9532 105.131 28.9532C105.349 28.9532 105.525 28.7769 105.525 28.5594V28.0394C105.525 27.1943 105.54 27.1153 105.72 26.9894C105.965 26.8174 106.089 26.8177 106.263 26.9906C106.37 27.0981 106.4 27.3278 106.4 28.0406V28.5523C106.4 28.7737 106.579 28.9532 106.801 28.9532C107.021 28.9532 107.197 28.7721 107.191 28.5525L107.173 27.8521L107.154 27.1338C107.147 26.8894 107.04 26.6586 106.858 26.4958C106.552 26.2228 106.034 26.1496 105.694 26.3312C105.578 26.3937 105.525 26.3937 105.525 26.3312C105.525 26.2815 105.348 26.2407 105.131 26.2407C104.914 26.2407 104.737 26.417 104.737 26.6344V27.5969ZM109.725 27.5969V28.5594C109.725 28.7769 109.901 28.9532 110.119 28.9532C110.336 28.9532 110.512 28.7769 110.512 28.5594V27.5969V26.6344C110.512 26.417 110.336 26.2407 110.119 26.2407C109.901 26.2407 109.725 26.417 109.725 26.6344V27.5969ZM115.079 26.4178C114.77 26.6067 114.455 27.1801 114.452 27.562C114.451 27.6871 114.495 27.9234 114.55 28.087C114.832 28.9297 115.852 29.2719 116.659 28.7951C116.955 28.6203 116.961 28.5158 116.688 28.259C116.488 28.0715 116.463 28.0679 116.274 28.2001C116.164 28.2774 115.993 28.3407 115.894 28.3407C115.692 28.3407 115.325 28.1119 115.325 27.9857C115.325 27.9392 115.726 27.9032 116.244 27.9032H116.809C117.004 27.9032 117.162 27.7449 117.162 27.5497C117.162 27.0959 116.901 26.5889 116.567 26.3938C116.199 26.1791 115.451 26.1911 115.079 26.4178ZM117.6 27.5969V28.5594C117.6 28.7769 117.776 28.9532 117.994 28.9532C118.211 28.9532 118.388 28.777 118.388 28.5594L118.389 28.2313C118.39 27.3832 118.502 27.1083 118.892 26.9966C119.148 26.9231 119.175 26.8833 119.175 26.578C119.175 26.2853 119.149 26.2407 118.976 26.2407C118.866 26.2407 118.689 26.302 118.582 26.3769C118.406 26.5002 118.387 26.5002 118.387 26.3769C118.387 26.2738 118.292 26.2407 117.994 26.2407C117.776 26.2407 117.6 26.417 117.6 26.6344V27.5969ZM120.071 26.4152C119.46 26.7877 119.252 27.6367 119.604 28.3223C119.907 28.9121 120.65 29.1695 121.316 28.9153C121.865 28.7056 121.939 28.5851 121.694 28.3012C121.497 28.0731 121.489 28.0716 121.205 28.2133C120.884 28.3741 120.581 28.3341 120.346 28.0999C120.2 27.9543 120.238 27.9457 121.128 27.9221L121.596 27.9096C121.856 27.9027 122.062 27.6904 122.062 27.4308C122.062 26.9102 121.879 26.5936 121.447 26.3702C121.086 26.1838 120.415 26.2058 120.071 26.4152ZM12.6656 27.0525C12.881 27.2192 12.7673 27.2907 12.2865 27.2907C11.7645 27.2907 11.6817 27.1666 12.0725 26.9701C12.2754 26.8681 12.4607 26.8939 12.6656 27.0525ZM67.2656 27.0525C67.481 27.2192 67.3673 27.2907 66.8865 27.2907C66.3645 27.2907 66.2817 27.1666 66.6726 26.9701C66.8754 26.8681 67.0607 26.8939 67.2656 27.0525ZM90.6281 27.0525C90.8478 27.2225 90.7259 27.2907 90.2018 27.2907C89.719 27.2907 89.6776 27.2768 89.7831 27.1496C90.0118 26.8741 90.3477 26.8355 90.6281 27.0525ZM116.178 27.0525C116.394 27.2192 116.28 27.2907 115.799 27.2907C115.277 27.2907 115.194 27.1666 115.585 26.9701C115.788 26.8681 115.973 26.8939 116.178 27.0525ZM121.166 27.0525C121.385 27.2225 121.263 27.2907 120.739 27.2907C120.257 27.2907 120.215 27.2768 120.321 27.1496C120.549 26.8741 120.885 26.8355 121.166 27.0525ZM6.46861 27.1712C6.6731 27.4311 6.69428 27.6228 6.55288 27.9332C6.3546 28.3683 5.73615 28.4086 5.51784 28.0007C5.13135 27.2785 5.9745 26.543 6.46861 27.1712ZM9.415 27.0076C9.73079 27.2185 9.77751 27.9302 9.49112 28.1679C9.3044 28.3228 8.94618 28.2995 8.74711 28.1193C8.53606 27.9283 8.51725 27.412 8.71124 27.1352C8.84695 26.9414 9.21576 26.8746 9.415 27.0076ZM21.9859 27.0938C22.4345 27.5916 22.1372 28.3409 21.525 28.2556C21.1156 28.1987 20.9389 27.5417 21.2237 27.1352C21.3898 26.898 21.7899 26.8763 21.9859 27.0938ZM36.9638 27.1352C37.1577 27.412 37.1389 27.9283 36.9279 28.1193C36.5184 28.4899 35.9625 28.1979 35.9625 27.6122C35.9625 27.17 36.1597 26.9407 36.5398 26.9407C36.738 26.9407 36.87 27.0012 36.9638 27.1352ZM59.0824 27.0938C59.5579 27.6353 59.127 28.494 58.4994 28.2554C57.8609 28.0126 58.0236 26.9407 58.6989 26.9407C58.8359 26.9407 59.0084 27.0096 59.0824 27.0938ZM75.3703 27.0531C75.4549 27.115 75.5451 27.3223 75.5709 27.5139C75.6322 27.9713 75.4 28.2823 74.997 28.2823C74.65 28.2823 74.4712 28.1123 74.4079 27.7221C74.3143 27.1452 74.9202 26.724 75.3703 27.0531ZM78.5352 27.1201C78.9059 27.5297 78.6159 28.2751 78.0857 28.2751C77.6073 28.2751 77.3489 27.581 77.6612 27.1352C77.8403 26.8793 78.3101 26.8713 78.5352 27.1201ZM81.5734 27.0938C82.022 27.5916 81.7247 28.3409 81.1125 28.2556C80.7031 28.1987 80.5264 27.5417 80.8112 27.1352C80.9773 26.898 81.3774 26.8763 81.5734 27.0938ZM124.201 27.1352C124.517 27.5855 124.255 28.2751 123.769 28.2751C123.397 28.2751 123.17 27.9552 123.229 27.5139C123.255 27.3223 123.345 27.115 123.43 27.0531C123.672 26.8757 124.047 26.9155 124.201 27.1352ZM25.0093 28.0108C24.9687 28.2936 24.5481 28.427 24.3455 28.2214C24.2015 28.0753 24.2023 28.0611 24.3636 27.9416C24.457 27.8723 24.6468 27.8157 24.7853 27.8157C24.9959 27.8157 25.0326 27.8477 25.0093 28.0108ZM93.4342 28.0108C93.3948 28.2862 92.9742 28.4274 92.778 28.2312C92.5736 28.0268 92.768 27.8157 93.1605 27.8157C93.4225 27.8157 93.4585 27.8413 93.4342 28.0108Z" fill="url(#paint0_linear_137_9161)"/>
</g>
<defs>
<linearGradient id="paint0_linear_137_9161" x1="0" y1="0" x2="13.5968" y2="56.725" gradientUnits="userSpaceOnUse">
<stop stop-color="#FDD819"/>
<stop offset="1" stop-color="#E80505"/>
</linearGradient>
</defs>
</svg>
