<svg preserveAspectRatio="none" width="100%" height="100%" overflow="visible" style="display: block;" viewBox="0 0 50.2206 53.2719" fill="none" xmlns="http://www.w3.org/2000/svg">
<g id="Logo">
<path id="Vector" d="M48.2821 33.7506L47.4216 31.3125C47.4216 31.3125 51.007 25.8628 42.1153 23.9984C42.1153 23.9984 42.6889 17.2579 39.5338 14.1028C46.4177 7.36227 44.8401 -2.82019 29.2079 3.77689C21.1767 -11.5685 -9.80092 24.4286 3.10641 30.1652C1.81568 31.8862 1.81568 40.4911 10.7074 41.3516C16.7308 54.2589 31.3591 55.1194 39.8206 51.2472C48.2821 47.375 53.1582 35.0413 48.2821 33.7506ZM10.564 39.4872C3.24983 38.7701 2.53276 28.7311 8.84301 27.7272C15.1533 26.7233 16.7308 40.0609 10.564 39.4872ZM8.41276 25.8628C6.40496 25.8628 3.9669 28.5877 3.9669 28.5877C-5.78531 23.855 21.6069 -7.55288 27.4869 4.63738C27.4869 4.63738 13.1455 11.5213 8.41276 25.8628ZM37.0957 38.053C37.0957 37.4794 34.084 38.9135 28.6343 37.0491C29.0645 34.0374 35.5182 39.6306 46.2743 32.3165L47.1348 35.3282C51.1504 34.6111 47.1348 48.2355 34.2274 48.0921C23.7582 47.9487 20.4596 37.1926 26.1962 31.3125C27.3435 30.1652 22.0372 27.8706 23.0411 22.8511C23.4713 20.6998 25.3357 17.5447 30.0684 18.4052C34.8011 19.2657 35.805 14.9633 38.9601 16.5408C42.1153 18.1184 40.2509 24.1418 40.6811 25.0023C41.1114 25.8628 45.7006 26.0062 46.5611 28.4442C47.4216 30.8823 40.6811 36.1887 30.2118 34.7545C27.7738 34.4677 26.3396 37.6228 27.9172 39.6306C31.0723 44.2199 43.9796 41.2082 46.1309 36.7623C40.6811 40.9213 29.4947 42.4989 28.6343 38.053C31.7894 39.4872 37.0957 38.6267 37.0957 38.053ZM18.3084 15.3935C21.4635 11.5213 25.6225 9.22666 25.6225 9.22666L24.7621 11.3779C24.7621 11.3779 27.7738 9.08324 31.0723 9.08324L29.925 10.2306C33.6538 10.374 35.2313 11.8081 35.2313 11.8081C35.2313 11.8081 26.483 9.22666 18.3084 15.3935ZM37.6694 20.9867C39.5338 20.8433 38.9601 25.1457 38.9601 25.1457H37.8128C37.8128 25.1457 35.805 21.1301 37.6694 20.9867ZM29.2079 25.7194C27.9172 25.8628 26.483 26.5799 26.6265 26.0062C27.2001 23.7116 32.5065 24.2852 32.363 26.293C32.2196 28.3008 31.0723 25.4325 29.2079 25.7194ZM32.2196 27.4403C32.363 27.7272 31.2157 27.4403 30.3552 27.5838C29.4947 27.7272 28.6343 28.1574 28.6343 27.8706C28.6343 27.5838 31.9328 26.293 32.2196 27.4403ZM35.0879 27.8706C35.5182 27.0101 37.2392 27.8706 36.8089 28.7311C36.3787 29.5916 34.6577 28.7311 35.0879 27.8706ZM38.6733 28.1574C37.8128 28.1574 37.8128 26.293 38.6733 26.293C39.5338 26.293 39.5338 28.3008 38.6733 28.3008V28.1574ZM12.8586 35.7584C13.2889 36.1887 11.9981 37.0491 10.9942 36.3321C9.99033 35.615 12.1416 32.173 9.56008 31.3125C6.97862 30.4521 7.69569 33.7506 6.97862 33.3204C6.26154 32.8901 7.98252 28.3008 10.9942 30.1652C14.0059 32.0296 10.1337 34.8979 11.8547 35.7584C13.5757 36.6189 12.5718 35.4716 12.8586 35.7584Z" fill="var(--fill-0, #1E1E1E)"/>
</g>
</svg>
