<svg preserveAspectRatio="none" width="100%" height="100%" overflow="visible" style="display: block;" viewBox="0 0 32.7451 37.8974" fill="none" xmlns="http://www.w3.org/2000/svg">
<g id="&#240;&#159;&#166;&#134; emoji &#34;fire&#34;">
<path id="Vector" d="M32.1598 15.2853C32.1598 15.2853 30.2649 17.0538 27.0436 19.1382C26.1593 14.022 23.696 7.70581 18.8957 0C18.8957 0 17.3166 8.27427 12.0741 16.0432C9.80028 12.5062 8.78968 9.72701 8.78968 9.72701C-7.63254 26.2124 6.01054 37.8974 14.6006 37.8974C25.5909 37.8974 35.2547 32.5918 32.1598 15.2853Z" fill="var(--fill-0, #FF9D33)"/>
<path id="Vector_2" d="M25.6539 29.939C26.6013 27.8546 27.2961 25.1387 27.4224 21.7279C27.4224 21.7279 26.096 22.8648 23.8222 24.3175C23.1905 20.9068 21.4852 16.7381 18.1376 11.5587C18.1376 11.5587 17.0638 17.0539 13.4004 22.2963C11.8213 19.9593 11.1265 18.0645 11.1265 18.0645C8.41055 22.3595 7.33679 25.7703 7.27363 28.4863C5.75773 27.9178 4.8103 27.4757 4.8103 27.4757C7.39995 35.1815 12.7688 36.8869 15.1689 36.8869C19.464 36.8869 23.8222 35.6236 28.1172 29.4969C28.1172 29.4337 27.1698 29.6863 25.6539 29.939Z" fill="var(--fill-0, #FFCE31)"/>
<path id="Vector_3" d="M9.98995 26.4651C9.98995 26.4651 11.7585 28.8652 13.0849 28.2968C13.0849 28.2968 15.6114 24.3175 19.2748 22.1068C19.2748 22.1068 18.5169 28.1704 19.4011 29.2442C20.5381 30.6969 23.633 27.6651 23.633 27.6651C23.633 31.2654 19.717 35.7499 16.1799 35.7499C12.7691 35.7499 7.84243 31.8339 9.98995 26.4651Z" fill="var(--fill-0, #FFDF85)"/>
<path id="Vector_4" d="M27.612 10.1691C28.9384 8.27427 29.8227 6.25308 29.8227 6.25308C32.0334 9.91649 30.707 12.1272 29.7596 12.822C28.4331 13.8326 26.0961 12.3798 27.612 10.1691ZM3.48401 9.53752C2.1576 7.32684 2.03127 4.54769 2.03127 4.54769C-1.12685 9.28487 0.0732388 11.9377 1.147 12.6956C2.53657 13.7694 4.93674 12.1272 3.48401 9.53752ZM10.8108 4.61085C11.0003 3.09496 10.3687 1.57906 10.3687 1.57906C13.3373 3.53709 13.3373 5.17932 12.9584 5.8741C12.3899 6.69521 10.6214 6.31624 10.8108 4.61085Z" fill="var(--fill-0, #FF9D33)"/>
</g>
</svg>
