<svg width="19" height="19" viewBox="0 0 19 19" fill="none" xmlns="http://www.w3.org/2000/svg">
<path fill-rule="evenodd" clip-rule="evenodd" d="M11.1599 0.606896C10.2012 -0.202299 8.79876 -0.202298 7.84005 0.606896L6.96694 1.34384C6.55945 1.68777 6.05521 1.89665 5.52387 1.94159L4.38539 2.03786C3.13529 2.14359 2.14359 3.13529 2.03786 4.38539L1.94159 5.52387C1.89665 6.05521 1.68777 6.55945 1.34384 6.96695L0.606896 7.84005C-0.202299 8.79876 -0.202298 10.2012 0.606896 11.1599L1.34384 12.033C1.68777 12.4405 1.89665 12.9448 1.94159 13.4761L2.03786 14.6147C2.14359 15.8648 3.13529 16.8565 4.38539 16.9621L5.52387 17.0584C6.05521 17.1034 6.55945 17.3123 6.96695 17.6562L7.84005 18.3931C8.79876 19.2023 10.2012 19.2023 11.1599 18.3931L12.033 17.6562C12.4405 17.3123 12.9448 17.1034 13.4761 17.0584L14.6147 16.9621C15.8648 16.8565 16.8565 15.8648 16.9621 14.6147L17.0584 13.4761C17.1034 12.9448 17.3123 12.4405 17.6562 12.033L18.3931 11.1599C19.2023 10.2012 19.2023 8.79876 18.3931 7.84005L17.6562 6.96694C17.3123 6.55945 17.1034 6.05521 17.0584 5.52387L16.9621 4.38539C16.8565 3.13529 15.8648 2.14359 14.6147 2.03786L13.4761 1.94159C12.9448 1.89665 12.4405 1.68777 12.033 1.34384L11.1599 0.606896ZM14.1797 7.74541C14.632 7.29315 14.632 6.55988 14.1797 6.10762C13.7276 5.65534 12.9942 5.65534 12.5419 6.10762L8.21378 10.4358L6.45914 8.68116C6.00688 8.22889 5.27361 8.22889 4.82135 8.68116C4.36907 9.13342 4.36907 9.86669 4.82135 10.319L7.39489 12.8924C7.84715 13.3447 8.58042 13.3447 9.03268 12.8924L14.1797 7.74541Z" fill="#3ED37A"/>
</svg>
