<svg width="80" height="51" viewBox="0 0 80 51" fill="none" xmlns="http://www.w3.org/2000/svg">
<g clip-path="url(#clip0_79_3354)">
<path d="M16.2549 45.7748C15.6098 47.2608 14.6157 48.5018 13.2663 49.501C11.9201 50.5003 10.2341 50.9999 8.21472 50.9999C5.63749 50.9999 3.62432 50.0683 2.17522 48.2052C0.726111 46.3421 0 43.8827 0 40.8205V33.2327C0 30.0223 1.0097 27.4984 3.03222 25.6675C5.05162 23.8334 7.82206 22.918 11.3342 22.918C12.5059 22.918 13.6185 23.0179 14.6718 23.2145C15.7251 23.4111 16.6912 23.6916 17.57 24.0558V14.1956H24.1611V50.5486H17.57V45.778H16.2518L16.2549 45.7748ZM10.982 45.4106C12.1818 45.4106 13.31 45.1237 14.3633 44.5467C15.4166 43.973 16.4855 43.093 17.57 41.91V29.5516C16.7193 29.0681 15.8404 28.6975 14.9336 28.4396C14.0267 28.1817 13.1167 28.0528 12.2099 28.0528C10.365 28.0528 8.96576 28.5008 8.01527 29.3937C7.06167 30.2866 6.58798 31.5824 6.58798 33.2778V40.366C6.58798 42.2452 6.98376 43.5539 7.77531 44.2953C8.56687 45.0367 9.63578 45.4074 10.982 45.4074V45.4106Z" fill="#FFFCF0"/>
<path d="M44.4644 50.5454H35.7698L26.7168 22.8696H33.5385L40.2293 45.4267L46.9638 22.8696H53.5642L44.4676 50.5454H44.4644Z" fill="#FFFCF0"/>
<path d="M74.2843 18.4184L68.8805 17.2128C67.1447 16.9388 65.4338 17.8381 64.6236 19.4498L62.3673 24.6846C62.171 25.0746 61.5976 24.8812 61.663 24.446L62.707 18.918C62.9719 17.1226 62.1025 15.3529 60.5443 14.5149L55.608 12.1199C55.2309 11.9168 55.4179 11.3237 55.8386 11.3914L61.2268 12.5647C62.9626 12.8387 64.6735 11.9394 65.4837 10.3277L67.7555 5.12522C67.9519 4.73519 68.5253 4.92859 68.4598 5.36374L67.5125 10.8435C67.2476 12.6389 68.117 14.4085 69.6752 15.2466L74.5149 17.6899C74.892 17.8929 74.705 18.486 74.2843 18.4184Z" fill="#FFFCF0"/>
<path d="M75.5446 18.2004C75.6228 17.5503 75.1766 16.9577 74.5481 16.8769C73.9196 16.796 73.3467 17.2575 73.2685 17.9076C73.1903 18.5577 73.6365 19.1503 74.265 19.2311C74.8935 19.312 75.4664 18.8505 75.5446 18.2004Z" fill="#FFFCF0"/>
<path d="M63.1462 24.7558C63.2243 24.1057 62.7782 23.5132 62.1497 23.4323C61.5211 23.3514 60.9482 23.8129 60.8701 24.463C60.7919 25.1131 61.238 25.7057 61.8666 25.7865C62.4951 25.8674 63.068 25.4059 63.1462 24.7558Z" fill="#FFFCF0"/>
<path d="M57.0251 11.9843C57.1032 11.3342 56.6571 10.7417 56.0286 10.6608C55.4 10.5799 54.8271 11.0414 54.749 11.6915C54.6708 12.3416 55.1169 12.9342 55.7455 13.0151C56.374 13.0959 56.9469 12.6345 57.0251 11.9843Z" fill="#FFFCF0"/>
<path d="M69.1696 5.63278C69.2478 4.98267 68.8016 4.39011 68.1731 4.30925C67.5446 4.22839 66.9717 4.68985 66.8935 5.33996C66.8153 5.99007 67.2615 6.58264 67.89 6.6635C68.5185 6.74436 69.0914 6.28289 69.1696 5.63278Z" fill="#FFFCF0"/>
<path d="M78.8395 15.3208C79.1698 15.6722 80.0237 16.7874 79.9988 18.2315C79.9863 18.873 79.765 19.7433 79.1823 19.9076C79.0825 19.9367 78.7491 20.0269 78.4749 19.7948C78.3128 19.6562 78.238 19.4628 78.2162 19.3919C78.1009 19.0502 78.2474 18.7215 78.2941 18.5957C78.2941 18.5957 78.6026 17.7899 78.5808 16.8132C78.559 15.8108 77.5992 14.7664 76.6113 14.4795C75.6234 14.1926 74.6978 14.6471 74.6667 14.5375C74.6449 14.4537 75.1684 14.1314 75.7948 14.0379C77.3717 13.7994 78.665 15.1371 78.8395 15.3208Z" fill="#FFFCF0"/>
<path d="M52.1637 14.3343C51.8334 13.983 50.9795 12.8677 51.0044 11.4236C51.0169 10.7822 51.2382 9.91189 51.8209 9.7475C51.9206 9.71849 52.2541 9.62823 52.5283 9.86032C52.6904 9.99892 52.7652 10.1923 52.787 10.2632C52.9023 10.6049 52.7558 10.9337 52.7091 11.0594C52.7091 11.0594 52.4006 11.8652 52.4224 12.8419C52.4442 13.8444 53.404 14.8888 54.3919 15.1756C55.3798 15.4625 56.3054 15.008 56.3365 15.1176C56.3583 15.2014 55.8348 15.5238 55.2084 15.6172C53.6315 15.8558 52.3382 14.5181 52.1637 14.3343Z" fill="#FFFCF0"/>
<path d="M64.8011 28.6622C64.4614 29.0039 63.3831 29.8871 61.987 29.8613C61.3668 29.8484 60.5254 29.6196 60.3665 29.0168C60.3384 28.9136 60.2512 28.5687 60.4755 28.2851C60.6095 28.1175 60.7965 28.0401 60.8651 28.0175C61.1954 27.8983 61.5133 28.0498 61.6348 28.0981C61.6348 28.0981 62.4139 28.4172 63.3582 28.3947C64.3274 28.3721 65.3371 27.3793 65.6144 26.3575C65.8918 25.3357 65.4524 24.3784 65.5583 24.3461C65.6393 24.3236 65.951 24.8651 66.0414 25.513C66.272 27.144 64.9787 28.4817 64.8011 28.6622Z" fill="#FFFCF0"/>
<path d="M65.4142 1.19915C65.7539 0.857478 66.8322 -0.0257223 68.2283 6.45872e-05C68.8485 0.012958 69.6899 0.241817 69.8488 0.844585C69.8769 0.947732 69.9641 1.29263 69.7397 1.57629C69.6057 1.7439 69.4188 1.82126 69.3502 1.84383C69.0199 1.96309 68.702 1.81159 68.5805 1.76324C68.5805 1.76324 67.8014 1.44413 66.8571 1.46669C65.8879 1.48926 64.8782 2.48205 64.6009 3.50386C64.3235 4.52566 64.7629 5.483 64.657 5.51523C64.5759 5.5378 64.2643 4.99627 64.1739 4.34838C63.9433 2.71736 65.2366 1.37966 65.4142 1.19915Z" fill="#FFFCF0"/>
</g>
<defs>
<clipPath id="clip0_79_3354">
<rect width="80" height="51" fill="white"/>
</clipPath>
</defs>
</svg>
